<svg xmlns="http://www.w3.org/2000/svg" xmlns:xlink="http://www.w3.org/1999/xlink" width="39" height="39.001" viewBox="0 0 39 39.001">
  <defs>
    <linearGradient id="linear-gradient" x1="0.5" x2="0.5" y2="1" gradientUnits="objectBoundingBox">
      <stop offset="0" stop-color="red"/>
      <stop offset="1" stop-color="#ff0093"/>
    </linearGradient>
  </defs>
  <path id="Exclusion_7" data-name="Exclusion 7" d="M-234.886-1453.5a3.549,3.549,0,0,1-3.545-3.545v-.16a2.911,2.911,0,0,0-1.914-2.677,2.9,2.9,0,0,0-1.18-.249,2.914,2.914,0,0,0-2.047.834l-.106.106a3.565,3.565,0,0,1-2.507,1.04,3.566,3.566,0,0,1-2.508-1.04,3.569,3.569,0,0,1-1.04-2.508,3.521,3.521,0,0,1,1.04-2.508l.106-.107a2.909,2.909,0,0,0,.585-3.226,2.926,2.926,0,0,0-2.677-1.773h-.3a3.55,3.55,0,0,1-3.546-3.545,3.55,3.55,0,0,1,3.546-3.545h.159a2.911,2.911,0,0,0,2.677-1.915,2.912,2.912,0,0,0-.585-3.226l-.106-.106a3.522,3.522,0,0,1-1.04-2.508,3.521,3.521,0,0,1,1.04-2.508,3.569,3.569,0,0,1,2.508-1.04,3.572,3.572,0,0,1,2.508,1.04l.106.107a2.914,2.914,0,0,0,2.047.834,2.9,2.9,0,0,0,1.179-.249h.142a2.925,2.925,0,0,0,1.772-2.677v-.3a3.55,3.55,0,0,1,3.546-3.546,3.55,3.55,0,0,1,3.545,3.546v.16a2.919,2.919,0,0,0,1.773,2.676,2.9,2.9,0,0,0,1.181.25,2.91,2.91,0,0,0,2.046-.835l.106-.106a3.565,3.565,0,0,1,2.507-1.04,3.522,3.522,0,0,1,2.509,1.04,3.525,3.525,0,0,1,1.039,2.509,3.521,3.521,0,0,1-1.039,2.508l-.106.106a2.91,2.91,0,0,0-.585,3.226v.142a2.92,2.92,0,0,0,2.677,1.772h.3a3.55,3.55,0,0,1,3.545,3.547,3.549,3.549,0,0,1-3.545,3.545h-.159a2.922,2.922,0,0,0-2.677,1.773,2.913,2.913,0,0,0,.585,3.226l.106.106a3.569,3.569,0,0,1,1.04,2.508,3.523,3.523,0,0,1-1.04,2.509,3.565,3.565,0,0,1-2.507,1.04,3.522,3.522,0,0,1-2.509-1.04l-.106-.106a2.909,2.909,0,0,0-2.046-.834,2.9,2.9,0,0,0-1.18.249,2.924,2.924,0,0,0-1.773,2.676v.3A3.549,3.549,0,0,1-234.886-1453.5Zm-.169-26a6.507,6.507,0,0,0-6.5,6.5,6.507,6.507,0,0,0,6.5,6.5,6.507,6.507,0,0,0,6.5-6.5A6.507,6.507,0,0,0-235.055-1479.5Zm0,10a3.5,3.5,0,0,1-3.5-3.5,3.5,3.5,0,0,1,3.5-3.5,3.5,3.5,0,0,1,3.5,3.5A3.5,3.5,0,0,1-235.055-1469.5Z" transform="translate(254.527 1492.501)" fill="url(#linear-gradient)"/>
</svg>
