<svg width="317" height="232" viewBox="0 0 317 232" fill="none" xmlns="http://www.w3.org/2000/svg">
<circle cx="3.67228" cy="3.14072" r="2.81852" fill="white"/>
<circle cx="31.8575" cy="3.14072" r="2.81852" fill="white"/>
<circle cx="60.0427" cy="3.14072" r="2.81852" fill="white"/>
<circle cx="88.2278" cy="3.14072" r="2.81852" fill="white"/>
<circle cx="116.413" cy="3.14072" r="2.81852" fill="white"/>
<circle cx="144.598" cy="3.14072" r="2.81852" fill="white"/>
<circle cx="172.783" cy="3.14072" r="2.81852" fill="white"/>
<circle cx="200.969" cy="3.14072" r="2.81852" fill="white"/>
<circle cx="229.154" cy="3.14072" r="2.81852" fill="white"/>
<circle cx="257.339" cy="3.14072" r="2.81852" fill="white"/>
<circle cx="285.524" cy="3.14072" r="2.81852" fill="white"/>
<circle cx="313.709" cy="3.14072" r="2.81852" fill="white"/>
<circle cx="3.67228" cy="25.6889" r="2.81852" fill="white"/>
<circle cx="31.8575" cy="25.6889" r="2.81852" fill="white"/>
<circle cx="60.0427" cy="25.6889" r="2.81852" fill="white"/>
<circle cx="88.2278" cy="25.6889" r="2.81852" fill="white"/>
<circle cx="116.413" cy="25.6889" r="2.81852" fill="white"/>
<circle cx="144.598" cy="25.6889" r="2.81852" fill="white"/>
<circle cx="172.783" cy="25.6889" r="2.81852" fill="white"/>
<circle cx="200.969" cy="25.6889" r="2.81852" fill="white"/>
<circle cx="229.154" cy="25.6889" r="2.81852" fill="white"/>
<circle cx="257.339" cy="25.6889" r="2.81852" fill="white"/>
<circle cx="285.524" cy="25.6889" r="2.81852" fill="white"/>
<circle cx="313.709" cy="25.6889" r="2.81852" fill="white"/>
<circle cx="3.67228" cy="48.237" r="2.81852" fill="white"/>
<circle cx="31.8575" cy="48.237" r="2.81852" fill="white"/>
<circle cx="60.0427" cy="48.237" r="2.81852" fill="white"/>
<circle cx="88.2278" cy="48.237" r="2.81852" fill="white"/>
<circle cx="116.413" cy="48.237" r="2.81852" fill="white"/>
<circle cx="144.598" cy="48.237" r="2.81852" fill="white"/>
<circle cx="172.783" cy="48.237" r="2.81852" fill="white"/>
<circle cx="200.969" cy="48.237" r="2.81852" fill="white"/>
<circle cx="229.154" cy="48.237" r="2.81852" fill="white"/>
<circle cx="257.339" cy="48.237" r="2.81852" fill="white"/>
<circle cx="285.524" cy="48.237" r="2.81852" fill="white"/>
<circle cx="313.709" cy="48.237" r="2.81852" fill="white"/>
<circle cx="3.67228" cy="70.7852" r="2.81852" fill="white"/>
<circle cx="31.8575" cy="70.7852" r="2.81852" fill="white"/>
<circle cx="60.0427" cy="70.7852" r="2.81852" fill="white"/>
<circle cx="88.2278" cy="70.7852" r="2.81852" fill="white"/>
<circle cx="116.413" cy="70.7852" r="2.81852" fill="white"/>
<circle cx="144.598" cy="70.7852" r="2.81852" fill="white"/>
<circle cx="172.783" cy="70.7852" r="2.81852" fill="white"/>
<circle cx="200.969" cy="70.7852" r="2.81852" fill="white"/>
<circle cx="229.154" cy="70.7852" r="2.81852" fill="white"/>
<circle cx="257.339" cy="70.7852" r="2.81852" fill="white"/>
<circle cx="285.524" cy="70.7852" r="2.81852" fill="white"/>
<circle cx="313.709" cy="70.7852" r="2.81852" fill="white"/>
<circle cx="3.67228" cy="93.3333" r="2.81852" fill="white"/>
<circle cx="31.8575" cy="93.3333" r="2.81852" fill="white"/>
<circle cx="60.0427" cy="93.3333" r="2.81852" fill="white"/>
<circle cx="88.2278" cy="93.3333" r="2.81852" fill="white"/>
<circle cx="116.413" cy="93.3333" r="2.81852" fill="white"/>
<circle cx="144.598" cy="93.3333" r="2.81852" fill="white"/>
<circle cx="172.783" cy="93.3333" r="2.81852" fill="white"/>
<circle cx="200.969" cy="93.3333" r="2.81852" fill="white"/>
<circle cx="229.154" cy="93.3333" r="2.81852" fill="white"/>
<circle cx="257.339" cy="93.3333" r="2.81852" fill="white"/>
<circle cx="285.524" cy="93.3333" r="2.81852" fill="white"/>
<circle cx="313.709" cy="93.3333" r="2.81852" fill="white"/>
<circle cx="3.67228" cy="115.881" r="2.81852" fill="white"/>
<circle cx="31.8575" cy="115.881" r="2.81852" fill="white"/>
<circle cx="60.0427" cy="115.881" r="2.81852" fill="white"/>
<circle cx="88.2278" cy="115.881" r="2.81852" fill="white"/>
<circle cx="116.413" cy="115.881" r="2.81852" fill="white"/>
<circle cx="144.598" cy="115.881" r="2.81852" fill="white"/>
<circle cx="172.783" cy="115.881" r="2.81852" fill="white"/>
<circle cx="200.969" cy="115.881" r="2.81852" fill="white"/>
<circle cx="229.154" cy="115.881" r="2.81852" fill="white"/>
<circle cx="257.339" cy="115.881" r="2.81852" fill="white"/>
<circle cx="285.524" cy="115.881" r="2.81852" fill="white"/>
<circle cx="313.709" cy="115.881" r="2.81852" fill="white"/>
<circle cx="3.67228" cy="138.43" r="2.81852" fill="white"/>
<circle cx="31.8575" cy="138.43" r="2.81852" fill="white"/>
<circle cx="60.0427" cy="138.43" r="2.81852" fill="white"/>
<circle cx="88.2278" cy="138.43" r="2.81852" fill="white"/>
<circle cx="116.413" cy="138.43" r="2.81852" fill="white"/>
<circle cx="144.598" cy="138.43" r="2.81852" fill="white"/>
<circle cx="172.783" cy="138.43" r="2.81852" fill="white"/>
<circle cx="200.969" cy="138.43" r="2.81852" fill="white"/>
<circle cx="229.154" cy="138.43" r="2.81852" fill="white"/>
<circle cx="257.339" cy="138.43" r="2.81852" fill="white"/>
<circle cx="285.524" cy="138.43" r="2.81852" fill="white"/>
<circle cx="313.709" cy="138.43" r="2.81852" fill="white"/>
<circle cx="3.67228" cy="160.978" r="2.81852" fill="white"/>
<circle cx="31.8575" cy="160.978" r="2.81852" fill="white"/>
<circle cx="60.0427" cy="160.978" r="2.81852" fill="white"/>
<circle cx="88.2278" cy="160.978" r="2.81852" fill="white"/>
<circle cx="116.413" cy="160.978" r="2.81852" fill="white"/>
<circle cx="144.598" cy="160.978" r="2.81852" fill="white"/>
<circle cx="172.783" cy="160.978" r="2.81852" fill="white"/>
<circle cx="200.969" cy="160.978" r="2.81852" fill="white"/>
<circle cx="229.154" cy="160.978" r="2.81852" fill="white"/>
<circle cx="257.339" cy="160.978" r="2.81852" fill="white"/>
<circle cx="285.524" cy="160.978" r="2.81852" fill="white"/>
<circle cx="313.709" cy="160.978" r="2.81852" fill="white"/>
<circle cx="3.67228" cy="183.526" r="2.81852" fill="white"/>
<circle cx="31.8575" cy="183.526" r="2.81852" fill="white"/>
<circle cx="60.0427" cy="183.526" r="2.81852" fill="white"/>
<circle cx="88.2278" cy="183.526" r="2.81852" fill="white"/>
<circle cx="116.413" cy="183.526" r="2.81852" fill="white"/>
<circle cx="144.598" cy="183.526" r="2.81852" fill="white"/>
<circle cx="172.783" cy="183.526" r="2.81852" fill="white"/>
<circle cx="200.969" cy="183.526" r="2.81852" fill="white"/>
<circle cx="229.154" cy="183.526" r="2.81852" fill="white"/>
<circle cx="257.339" cy="183.526" r="2.81852" fill="white"/>
<circle cx="285.524" cy="183.526" r="2.81852" fill="white"/>
<circle cx="313.709" cy="183.526" r="2.81852" fill="white"/>
<circle cx="3.67228" cy="206.074" r="2.81852" fill="white"/>
<circle cx="31.8575" cy="206.074" r="2.81852" fill="white"/>
<circle cx="60.0427" cy="206.074" r="2.81852" fill="white"/>
<circle cx="88.2278" cy="206.074" r="2.81852" fill="white"/>
<circle cx="116.413" cy="206.074" r="2.81852" fill="white"/>
<circle cx="144.598" cy="206.074" r="2.81852" fill="white"/>
<circle cx="172.783" cy="206.074" r="2.81852" fill="white"/>
<circle cx="200.969" cy="206.074" r="2.81852" fill="white"/>
<circle cx="229.154" cy="206.074" r="2.81852" fill="white"/>
<circle cx="257.339" cy="206.074" r="2.81852" fill="white"/>
<circle cx="285.524" cy="206.074" r="2.81852" fill="white"/>
<circle cx="313.709" cy="206.074" r="2.81852" fill="white"/>
<circle cx="3.67228" cy="228.622" r="2.81852" fill="white"/>
<circle cx="31.8575" cy="228.622" r="2.81852" fill="white"/>
<circle cx="60.0427" cy="228.622" r="2.81852" fill="white"/>
<circle cx="88.2278" cy="228.622" r="2.81852" fill="white"/>
<circle cx="116.413" cy="228.622" r="2.81852" fill="white"/>
<circle cx="144.598" cy="228.622" r="2.81852" fill="white"/>
<circle cx="172.783" cy="228.622" r="2.81852" fill="white"/>
<circle cx="200.969" cy="228.622" r="2.81852" fill="white"/>
<circle cx="229.154" cy="228.622" r="2.81852" fill="white"/>
<circle cx="257.339" cy="228.622" r="2.81852" fill="white"/>
<circle cx="285.524" cy="228.622" r="2.81852" fill="white"/>
<circle cx="313.709" cy="228.622" r="2.81852" fill="white"/>
</svg>
