<svg xmlns="http://www.w3.org/2000/svg" xmlns:xlink="http://www.w3.org/1999/xlink" width="354.044" height="55.555" viewBox="0 0 354.044 55.555">
  <defs>
    <linearGradient id="linear-gradient" x1="0.5" x2="0.5" y2="1" gradientUnits="objectBoundingBox">
      <stop offset="0" stop-color="red"/>
      <stop offset="1" stop-color="#ff00c5"/>
    </linearGradient>
    <linearGradient id="linear-gradient-2" x1="0.014" x2="1" y2="1" gradientUnits="objectBoundingBox">
      <stop offset="0" stop-color="red"/>
      <stop offset="1" stop-color="#ff0bb4"/>
    </linearGradient>
  </defs>
  <g id="Group_21" data-name="Group 21" transform="translate(-1223.978 -6727.445)">
    <g id="Group_11" data-name="Group 11" transform="translate(1228.978 6727.445)">
      <circle id="Ellipse_26" data-name="Ellipse 26" cx="19.498" cy="19.498" r="19.498" transform="translate(0.779 0.779)" fill="url(#linear-gradient)"/>
      <path id="Icon_awesome-arrow-circle-down" data-name="Icon awesome-arrow-circle-down" d="M41.117,20.84A20.277,20.277,0,1,1,20.84.563,20.274,20.274,0,0,1,41.117,20.84ZM29.376,18.477l-5.92,6.173V9.72a1.958,1.958,0,0,0-1.962-1.962H20.186A1.958,1.958,0,0,0,18.223,9.72V24.65L12.3,18.477a1.965,1.965,0,0,0-2.8-.033l-.891.9a1.954,1.954,0,0,0,0,2.772L19.45,32.965a1.954,1.954,0,0,0,2.772,0l10.85-10.85a1.954,1.954,0,0,0,0-2.772l-.891-.9a1.965,1.965,0,0,0-2.8.033Z" transform="translate(-0.563 -0.563)" fill="#fff"/>
    </g>
    <rect id="Rectangle_41" data-name="Rectangle 41" width="164.522" height="5" rx="2.5" transform="translate(1223.978 6778)" fill="url(#linear-gradient-2)"/>
    <path id="Intersection_5" data-name="Intersection 5" d="M136.208,27.252a11.005,11.005,0,0,1-4.192-4.112,11.5,11.5,0,0,1-1.552-5.935,11.41,11.41,0,0,1,1.552-5.92,11.04,11.04,0,0,1,4.192-4.1,12.192,12.192,0,0,1,11.616,0,10.806,10.806,0,0,1,4.16,4.1,11.59,11.59,0,0,1,1.52,5.92,11.581,11.581,0,0,1-1.536,5.935,10.909,10.909,0,0,1-4.16,4.112,12.16,12.16,0,0,1-11.6,0Zm1.472-14.816a6.776,6.776,0,0,0-1.616,4.768,6.792,6.792,0,0,0,1.616,4.752,5.577,5.577,0,0,0,4.336,1.776,5.514,5.514,0,0,0,4.3-1.792,6.8,6.8,0,0,0,1.615-4.736,6.788,6.788,0,0,0-1.615-4.752,5.535,5.535,0,0,0-4.3-1.777A5.6,5.6,0,0,0,137.68,12.436ZM38.064,27.252a11,11,0,0,1-4.191-4.112A11.487,11.487,0,0,1,32.32,17.2a11.4,11.4,0,0,1,1.553-5.92,11.032,11.032,0,0,1,4.191-4.1,12.192,12.192,0,0,1,11.616,0,10.8,10.8,0,0,1,4.16,4.1,11.59,11.59,0,0,1,1.52,5.92,11.581,11.581,0,0,1-1.536,5.935,10.909,10.909,0,0,1-4.16,4.112,12.16,12.16,0,0,1-11.6,0Zm1.472-14.816A6.776,6.776,0,0,0,37.92,17.2a6.792,6.792,0,0,0,1.616,4.752,5.577,5.577,0,0,0,4.336,1.776,5.514,5.514,0,0,0,4.3-1.792A6.8,6.8,0,0,0,49.792,17.2a6.788,6.788,0,0,0-1.616-4.752,5.535,5.535,0,0,0-4.3-1.777A5.6,5.6,0,0,0,39.536,12.436ZM272.336,27.2a10.322,10.322,0,0,1-4.017-4.048,11.992,11.992,0,0,1-1.44-5.92,12.078,12.078,0,0,1,1.44-5.936,10.293,10.293,0,0,1,4.017-4.064,11.654,11.654,0,0,1,5.839-1.456,11.17,11.17,0,0,1,6.848,2.112,10.14,10.14,0,0,1,3.808,5.76h-6.016a4.857,4.857,0,0,0-1.9-2.144,5.344,5.344,0,0,0-2.8-.736,5.229,5.229,0,0,0-4.1,1.759,6.813,6.813,0,0,0-1.568,4.7,6.813,6.813,0,0,0,1.568,4.7,5.229,5.229,0,0,0,4.1,1.76,5.352,5.352,0,0,0,2.8-.735,4.864,4.864,0,0,0,1.9-2.145h6.016a10.067,10.067,0,0,1-3.808,5.745,11.235,11.235,0,0,1-6.848,2.1A11.662,11.662,0,0,1,272.336,27.2Zm26.128,1.3L290.5,6.036h5.824L301.888,23l5.6-16.96h5.792L305.312,28.5Zm-52.9,0V21.076l-7.776-15.04H244l4.352,9.408,4.32-9.408h6.143l-7.776,15.04V28.5Zm-15.423,0V15.028L225.12,28.5H220.7L215.648,15V28.5h-5.472V6.036h6.464l6.3,15.552,6.24-15.552h6.432V28.5Zm-50.017,0V6.036h8.416a13.066,13.066,0,0,1,6.208,1.408,10.061,10.061,0,0,1,4.112,3.952,11.609,11.609,0,0,1,1.456,5.873,11.629,11.629,0,0,1-1.456,5.855,10,10,0,0,1-4.128,3.968,13.088,13.088,0,0,1-6.192,1.409Zm5.472-4.737h2.592a6.606,6.606,0,0,0,4.832-1.7,6.421,6.421,0,0,0,1.728-4.8,6.531,6.531,0,0,0-1.728-4.832,6.533,6.533,0,0,0-4.832-1.728H185.6ZM171.872,28.5l-1.344-3.968h-8.384L160.8,28.5h-5.729L163.2,6.036h6.336L177.664,28.5Zm-8.288-8.193h5.536l-2.784-8.223ZM116.128,28.5V6.036H121.6V24.276h7.169V28.5Zm-9.44,0L97.536,14.644V28.5H92.064V6.036h5.472l9.152,13.919V6.036h5.472V28.5Zm-29.856,0L73.248,13.716,69.536,28.5H62.912l-5.7-22.464h5.856L66.3,22.388l4-16.352H76.32l3.84,16.352L83.424,6.036h5.889L83.456,28.5Zm-66.848,0V6.036H18.4a13.063,13.063,0,0,1,6.208,1.408A10.056,10.056,0,0,1,28.72,11.4a11.609,11.609,0,0,1,1.456,5.873,11.629,11.629,0,0,1-1.456,5.855,10,10,0,0,1-4.128,3.968A13.088,13.088,0,0,1,18.4,28.5Zm5.472-4.737h2.592a6.6,6.6,0,0,0,4.832-1.7,6.421,6.421,0,0,0,1.728-4.8,6.531,6.531,0,0,0-1.728-4.832,6.531,6.531,0,0,0-4.832-1.728H15.456Z" transform="translate(1264.742 6729.251)" fill="url(#linear-gradient-2)"/>
  </g>
</svg>
