<svg width="316" height="232" viewBox="0 0 316 232" fill="none" xmlns="http://www.w3.org/2000/svg">
<g opacity="0.2">
<circle cx="2.81852" cy="2.81852" r="2.81852" fill="white" fill-opacity="0.87"/>
<circle cx="31.0037" cy="2.81852" r="2.81852" fill="white" fill-opacity="0.87"/>
<circle cx="59.1889" cy="2.81852" r="2.81852" fill="white" fill-opacity="0.87"/>
<circle cx="87.3741" cy="2.81852" r="2.81852" fill="white" fill-opacity="0.87"/>
<circle cx="115.559" cy="2.81852" r="2.81852" fill="white" fill-opacity="0.87"/>
<circle cx="143.744" cy="2.81852" r="2.81852" fill="white" fill-opacity="0.87"/>
<circle cx="171.93" cy="2.81852" r="2.81852" fill="white" fill-opacity="0.87"/>
<circle cx="200.115" cy="2.81852" r="2.81852" fill="white" fill-opacity="0.87"/>
<circle cx="228.3" cy="2.81852" r="2.81852" fill="white" fill-opacity="0.87"/>
<circle cx="256.485" cy="2.81852" r="2.81852" fill="white" fill-opacity="0.87"/>
<circle cx="284.67" cy="2.81852" r="2.81852" fill="white" fill-opacity="0.87"/>
<circle cx="312.856" cy="2.81852" r="2.81852" fill="white" fill-opacity="0.87"/>
<circle cx="2.81852" cy="25.3667" r="2.81852" fill="white" fill-opacity="0.87"/>
<circle cx="31.0037" cy="25.3667" r="2.81852" fill="white" fill-opacity="0.87"/>
<circle cx="59.1889" cy="25.3667" r="2.81852" fill="white" fill-opacity="0.87"/>
<circle cx="87.3741" cy="25.3667" r="2.81852" fill="white" fill-opacity="0.87"/>
<circle cx="115.559" cy="25.3667" r="2.81852" fill="white" fill-opacity="0.87"/>
<circle cx="143.744" cy="25.3667" r="2.81852" fill="white" fill-opacity="0.87"/>
<circle cx="171.93" cy="25.3667" r="2.81852" fill="white" fill-opacity="0.87"/>
<circle cx="200.115" cy="25.3667" r="2.81852" fill="white" fill-opacity="0.87"/>
<circle cx="228.3" cy="25.3667" r="2.81852" fill="white" fill-opacity="0.87"/>
<circle cx="256.485" cy="25.3667" r="2.81852" fill="white" fill-opacity="0.87"/>
<circle cx="284.67" cy="25.3667" r="2.81852" fill="white" fill-opacity="0.87"/>
<circle cx="312.856" cy="25.3667" r="2.81852" fill="white" fill-opacity="0.87"/>
<circle cx="2.81852" cy="47.9148" r="2.81852" fill="white" fill-opacity="0.87"/>
<circle cx="31.0037" cy="47.9148" r="2.81852" fill="white" fill-opacity="0.87"/>
<circle cx="59.1889" cy="47.9148" r="2.81852" fill="white" fill-opacity="0.87"/>
<circle cx="87.3741" cy="47.9148" r="2.81852" fill="white" fill-opacity="0.87"/>
<circle cx="115.559" cy="47.9148" r="2.81852" fill="white" fill-opacity="0.87"/>
<circle cx="143.744" cy="47.9148" r="2.81852" fill="white" fill-opacity="0.87"/>
<circle cx="171.93" cy="47.9148" r="2.81852" fill="white" fill-opacity="0.87"/>
<circle cx="200.115" cy="47.9148" r="2.81852" fill="white" fill-opacity="0.87"/>
<circle cx="228.3" cy="47.9148" r="2.81852" fill="white" fill-opacity="0.87"/>
<circle cx="256.485" cy="47.9148" r="2.81852" fill="white" fill-opacity="0.87"/>
<circle cx="284.67" cy="47.9148" r="2.81852" fill="white" fill-opacity="0.87"/>
<circle cx="312.856" cy="47.9148" r="2.81852" fill="white" fill-opacity="0.87"/>
<circle cx="2.81852" cy="70.463" r="2.81852" fill="white" fill-opacity="0.87"/>
<circle cx="31.0037" cy="70.463" r="2.81852" fill="white" fill-opacity="0.87"/>
<circle cx="59.1889" cy="70.463" r="2.81852" fill="white" fill-opacity="0.87"/>
<circle cx="87.3741" cy="70.463" r="2.81852" fill="white" fill-opacity="0.87"/>
<circle cx="115.559" cy="70.463" r="2.81852" fill="white" fill-opacity="0.87"/>
<circle cx="143.744" cy="70.463" r="2.81852" fill="white" fill-opacity="0.87"/>
<circle cx="171.93" cy="70.463" r="2.81852" fill="white" fill-opacity="0.87"/>
<circle cx="200.115" cy="70.463" r="2.81852" fill="white" fill-opacity="0.87"/>
<circle cx="228.3" cy="70.463" r="2.81852" fill="white" fill-opacity="0.87"/>
<circle cx="256.485" cy="70.463" r="2.81852" fill="white" fill-opacity="0.87"/>
<circle cx="284.67" cy="70.463" r="2.81852" fill="white" fill-opacity="0.87"/>
<circle cx="312.856" cy="70.463" r="2.81852" fill="white" fill-opacity="0.87"/>
<circle cx="2.81852" cy="93.0111" r="2.81852" fill="white" fill-opacity="0.87"/>
<circle cx="31.0037" cy="93.0111" r="2.81852" fill="white" fill-opacity="0.87"/>
<circle cx="59.1889" cy="93.0111" r="2.81852" fill="white" fill-opacity="0.87"/>
<circle cx="87.3741" cy="93.0111" r="2.81852" fill="white" fill-opacity="0.87"/>
<circle cx="115.559" cy="93.0111" r="2.81852" fill="white" fill-opacity="0.87"/>
<circle cx="143.744" cy="93.0111" r="2.81852" fill="white" fill-opacity="0.87"/>
<circle cx="171.93" cy="93.0111" r="2.81852" fill="white" fill-opacity="0.87"/>
<circle cx="200.115" cy="93.0111" r="2.81852" fill="white" fill-opacity="0.87"/>
<circle cx="228.3" cy="93.0111" r="2.81852" fill="white" fill-opacity="0.87"/>
<circle cx="256.485" cy="93.0111" r="2.81852" fill="white" fill-opacity="0.87"/>
<circle cx="284.67" cy="93.0111" r="2.81852" fill="white" fill-opacity="0.87"/>
<circle cx="312.856" cy="93.0111" r="2.81852" fill="white" fill-opacity="0.87"/>
<circle cx="2.81852" cy="115.559" r="2.81852" fill="white" fill-opacity="0.87"/>
<circle cx="31.0037" cy="115.559" r="2.81852" fill="white" fill-opacity="0.87"/>
<circle cx="59.1889" cy="115.559" r="2.81852" fill="white" fill-opacity="0.87"/>
<circle cx="87.3741" cy="115.559" r="2.81852" fill="white" fill-opacity="0.87"/>
<circle cx="115.559" cy="115.559" r="2.81852" fill="white" fill-opacity="0.87"/>
<circle cx="143.744" cy="115.559" r="2.81852" fill="white" fill-opacity="0.87"/>
<circle cx="171.93" cy="115.559" r="2.81852" fill="white" fill-opacity="0.87"/>
<circle cx="200.115" cy="115.559" r="2.81852" fill="white" fill-opacity="0.87"/>
<circle cx="228.3" cy="115.559" r="2.81852" fill="white" fill-opacity="0.87"/>
<circle cx="256.485" cy="115.559" r="2.81852" fill="white" fill-opacity="0.87"/>
<circle cx="284.67" cy="115.559" r="2.81852" fill="white" fill-opacity="0.87"/>
<circle cx="312.856" cy="115.559" r="2.81852" fill="white" fill-opacity="0.87"/>
<circle cx="2.81852" cy="138.107" r="2.81852" fill="white" fill-opacity="0.87"/>
<circle cx="31.0037" cy="138.107" r="2.81852" fill="white" fill-opacity="0.87"/>
<circle cx="59.1889" cy="138.107" r="2.81852" fill="white" fill-opacity="0.87"/>
<circle cx="87.3741" cy="138.107" r="2.81852" fill="white" fill-opacity="0.87"/>
<circle cx="115.559" cy="138.107" r="2.81852" fill="white" fill-opacity="0.87"/>
<circle cx="143.744" cy="138.107" r="2.81852" fill="white" fill-opacity="0.87"/>
<circle cx="171.93" cy="138.107" r="2.81852" fill="white" fill-opacity="0.87"/>
<circle cx="200.115" cy="138.107" r="2.81852" fill="white" fill-opacity="0.87"/>
<circle cx="228.3" cy="138.107" r="2.81852" fill="white" fill-opacity="0.87"/>
<circle cx="256.485" cy="138.107" r="2.81852" fill="white" fill-opacity="0.87"/>
<circle cx="284.67" cy="138.107" r="2.81852" fill="white" fill-opacity="0.87"/>
<circle cx="312.856" cy="138.107" r="2.81852" fill="white" fill-opacity="0.87"/>
<circle cx="2.81852" cy="160.656" r="2.81852" fill="white" fill-opacity="0.87"/>
<circle cx="31.0037" cy="160.656" r="2.81852" fill="white" fill-opacity="0.87"/>
<circle cx="59.1889" cy="160.656" r="2.81852" fill="white" fill-opacity="0.87"/>
<circle cx="87.3741" cy="160.656" r="2.81852" fill="white" fill-opacity="0.87"/>
<circle cx="115.559" cy="160.656" r="2.81852" fill="white" fill-opacity="0.87"/>
<circle cx="143.744" cy="160.656" r="2.81852" fill="white" fill-opacity="0.87"/>
<circle cx="171.93" cy="160.656" r="2.81852" fill="white" fill-opacity="0.87"/>
<circle cx="200.115" cy="160.656" r="2.81852" fill="white" fill-opacity="0.87"/>
<circle cx="228.3" cy="160.656" r="2.81852" fill="white" fill-opacity="0.87"/>
<circle cx="256.485" cy="160.656" r="2.81852" fill="white" fill-opacity="0.87"/>
<circle cx="284.67" cy="160.656" r="2.81852" fill="white" fill-opacity="0.87"/>
<circle cx="312.856" cy="160.656" r="2.81852" fill="white" fill-opacity="0.87"/>
<circle cx="2.81852" cy="183.204" r="2.81852" fill="white" fill-opacity="0.87"/>
<circle cx="31.0037" cy="183.204" r="2.81852" fill="white" fill-opacity="0.87"/>
<circle cx="59.1889" cy="183.204" r="2.81852" fill="white" fill-opacity="0.87"/>
<circle cx="87.3741" cy="183.204" r="2.81852" fill="white" fill-opacity="0.87"/>
<circle cx="115.559" cy="183.204" r="2.81852" fill="white" fill-opacity="0.87"/>
<circle cx="143.744" cy="183.204" r="2.81852" fill="white" fill-opacity="0.87"/>
<circle cx="171.93" cy="183.204" r="2.81852" fill="white" fill-opacity="0.87"/>
<circle cx="200.115" cy="183.204" r="2.81852" fill="white" fill-opacity="0.87"/>
<circle cx="228.3" cy="183.204" r="2.81852" fill="white" fill-opacity="0.87"/>
<circle cx="256.485" cy="183.204" r="2.81852" fill="white" fill-opacity="0.87"/>
<circle cx="284.67" cy="183.204" r="2.81852" fill="white" fill-opacity="0.87"/>
<circle cx="312.856" cy="183.204" r="2.81852" fill="white" fill-opacity="0.87"/>
<circle cx="2.81852" cy="205.752" r="2.81852" fill="white" fill-opacity="0.87"/>
<circle cx="31.0037" cy="205.752" r="2.81852" fill="white" fill-opacity="0.87"/>
<circle cx="59.1889" cy="205.752" r="2.81852" fill="white" fill-opacity="0.87"/>
<circle cx="87.3741" cy="205.752" r="2.81852" fill="white" fill-opacity="0.87"/>
<circle cx="115.559" cy="205.752" r="2.81852" fill="white" fill-opacity="0.87"/>
<circle cx="143.744" cy="205.752" r="2.81852" fill="white" fill-opacity="0.87"/>
<circle cx="171.93" cy="205.752" r="2.81852" fill="white" fill-opacity="0.87"/>
<circle cx="200.115" cy="205.752" r="2.81852" fill="white" fill-opacity="0.87"/>
<circle cx="228.3" cy="205.752" r="2.81852" fill="white" fill-opacity="0.87"/>
<circle cx="256.485" cy="205.752" r="2.81852" fill="white" fill-opacity="0.87"/>
<circle cx="284.67" cy="205.752" r="2.81852" fill="white" fill-opacity="0.87"/>
<circle cx="312.856" cy="205.752" r="2.81852" fill="white" fill-opacity="0.87"/>
<circle cx="2.81852" cy="228.3" r="2.81852" fill="white" fill-opacity="0.87"/>
<circle cx="31.0037" cy="228.3" r="2.81852" fill="white" fill-opacity="0.87"/>
<circle cx="59.1889" cy="228.3" r="2.81852" fill="white" fill-opacity="0.87"/>
<circle cx="87.3741" cy="228.3" r="2.81852" fill="white" fill-opacity="0.87"/>
<circle cx="115.559" cy="228.3" r="2.81852" fill="white" fill-opacity="0.87"/>
<circle cx="143.744" cy="228.3" r="2.81852" fill="white" fill-opacity="0.87"/>
<circle cx="171.93" cy="228.3" r="2.81852" fill="white" fill-opacity="0.87"/>
<circle cx="200.115" cy="228.3" r="2.81852" fill="white" fill-opacity="0.87"/>
<circle cx="228.3" cy="228.3" r="2.81852" fill="white" fill-opacity="0.87"/>
<circle cx="256.485" cy="228.3" r="2.81852" fill="white" fill-opacity="0.87"/>
<circle cx="284.67" cy="228.3" r="2.81852" fill="white" fill-opacity="0.87"/>
<circle cx="312.856" cy="228.3" r="2.81852" fill="white" fill-opacity="0.87"/>
</g>
</svg>
